<?xml version="1.0" standalone="no"?>
<!DOCTYPE svg PUBLIC "-//W3C//DTD SVG 20010904//EN"
 "http://www.w3.org/TR/2001/REC-SVG-20010904/DTD/svg10.dtd">
<svg version="1.0" xmlns="http://www.w3.org/2000/svg"
 width="260.000000pt" height="260.000000pt" viewBox="0 0 260.000000 260.000000"
 preserveAspectRatio="xMidYMid meet">
<metadata>
Created by potrace 1.11, written by Peter Selinger 2001-2013
</metadata>
<g transform="translate(0.000000,260.000000) scale(0.100000,-0.100000)"
fill="#000000" stroke="none">
<path d="M918 2360 l-3 -99 -169 84 c-94 47 -176 85 -183 85 -11 0 -13 -209
-13 -1130 0 -842 3 -1130 11 -1130 7 0 88 38 182 85 93 47 171 85 173 85 2 0
4 -31 4 -70 0 -50 4 -70 13 -70 11 0 284 134 925 452 l202 101 0 578 0 577
-42 20 c-24 11 -275 135 -560 276 -284 141 -521 256 -527 256 -6 0 -11 -38
-13 -100z m625 -626 c26 -9 47 -19 47 -22 0 -4 -9 -39 -19 -79 -21 -81 -24
-75 50 -88 34 -6 36 -9 29 -33 -7 -28 -12 -29 -85 -20 l-30 3 -27 -115 c-15
-63 -28 -121 -28 -127 0 -9 18 -13 55 -13 57 0 58 -1 49 -36 -5 -18 -16 -22
-61 -27 -31 -3 -59 -9 -63 -14 -4 -4 -18 -51 -30 -103 -13 -52 -24 -97 -26
-99 -3 -3 -122 -30 -138 -31 -10 0 -5 24 28 144 l25 89 -110 -7 -110 -6 7 22
c22 71 14 67 131 70 l107 3 33 134 c19 73 32 135 31 137 -2 1 -35 8 -73 14
-120 18 -115 15 -102 55 12 40 15 40 107 20 80 -18 100 -18 100 -4 0 23 41
149 49 149 4 0 28 -7 54 -16z m257 -108 c0 -12 -5 -41 -11 -65 -11 -48 -3 -60
36 -61 31 0 45 -14 39 -36 -5 -19 -10 -20 -47 -13 -23 4 -45 4 -48 1 -3 -4
-12 -41 -18 -82 -7 -41 -14 -85 -18 -97 -5 -22 -2 -23 47 -23 43 0 51 -3 46
-16 -3 -9 -6 -22 -6 -29 0 -10 -16 -15 -52 -17 l-52 -3 -17 -83 c-9 -45 -18
-84 -20 -86 -2 -2 -25 -8 -50 -13 -40 -9 -46 -8 -43 6 2 9 34 153 70 321 36
168 67 312 70 321 7 26 74 3 74 -25z"/>
</g>
</svg>
