<?xml version="1.0" encoding="utf-8"?>
<!-- Generator: Adobe Illustrator 17.1.0, SVG Export Plug-In . SVG Version: 6.00 Build 0)  -->
<!DOCTYPE svg PUBLIC "-//W3C//DTD SVG 1.1//EN" "http://www.w3.org/Graphics/SVG/1.1/DTD/svg11.dtd">
<svg version="1.1" id="Layer_1" xmlns="http://www.w3.org/2000/svg" xmlns:xlink="http://www.w3.org/1999/xlink" x="0px" y="0px"
	 viewBox="2 16.4 367.2 79.7" enable-background="new 2 16.4 367.2 79.7" xml:space="preserve">
<g>
	<path fill="#244356" d="M93.2,37.9L77.8,74.1c-0.2,0.5-0.5,0.9-0.9,1.2c-0.3,0.3-0.9,0.4-1.6,0.4h-5.7l5.4-11.5L63.6,37.9h6.7
		c0.6,0,1.1,0.1,1.4,0.4c0.3,0.3,0.6,0.6,0.7,1l5.4,13.6c0.2,0.5,0.4,1.1,0.5,1.6c0.2,0.5,0.3,1.1,0.5,1.6c0.3-1.1,0.7-2.2,1.1-3.3
		l5-13.6c0.1-0.4,0.4-0.7,0.8-1c0.4-0.3,0.8-0.4,1.3-0.4L93.2,37.9L93.2,37.9z"/>
	<path fill="#244356" d="M108.1,37.4c2.1,0,4.1,0.3,5.8,1c1.8,0.7,3.3,1.7,4.5,2.9c1.3,1.3,2.2,2.8,2.9,4.6c0.7,1.8,1,3.8,1,6.1
		s-0.3,4.3-1,6.1c-0.7,1.8-1.7,3.4-2.9,4.6s-2.8,2.3-4.5,2.9s-3.7,1-5.8,1c-2.2,0-4.1-0.3-5.9-1c-1.8-0.7-3.3-1.7-4.5-2.9
		c-1.3-1.3-2.2-2.8-2.9-4.6s-1-3.9-1-6.1c0-2.3,0.3-4.3,1-6.1c0.7-1.8,1.7-3.3,2.9-4.6c1.3-1.3,2.8-2.2,4.5-2.9
		C104,37.8,106,37.4,108.1,37.4z M108.1,61.1c2.2,0,3.8-0.8,4.8-2.3c1.1-1.5,1.6-3.7,1.6-6.7c0-3-0.5-5.2-1.6-6.7
		c-1.1-1.5-2.7-2.3-4.8-2.3c-2.2,0-3.9,0.8-4.9,2.3s-1.6,3.7-1.6,6.7c0,3,0.5,5.2,1.6,6.7C104.2,60.4,105.9,61.1,108.1,61.1z"/>
	<path fill="#244356" d="M152.2,37.9v28.5h-4.7c-1,0-1.6-0.4-1.9-1.3l-0.5-2c-0.6,0.6-1.2,1.1-1.8,1.5c-0.6,0.5-1.3,0.9-2,1.2
		c-0.7,0.3-1.4,0.6-2.2,0.8c-0.8,0.2-1.7,0.3-2.6,0.3c-1.5,0-2.9-0.3-4.1-0.8c-1.2-0.5-2.2-1.3-3-2.2c-0.8-1-1.4-2.1-1.9-3.4
		c-0.4-1.3-0.6-2.8-0.6-4.4V37.9h7.6V56c0,1.6,0.4,2.8,1.1,3.7c0.7,0.9,1.8,1.3,3.3,1.3c1.1,0,2.1-0.2,3-0.7
		c0.9-0.5,1.8-1.1,2.7-1.9V37.9H152.2z"/>
	<path fill="#244356" d="M165.7,42.6c0.9-1.6,1.9-2.9,3.1-3.8s2.6-1.4,4.2-1.4c1.3,0,2.3,0.3,3.2,0.9l-0.5,5.6
		c-0.1,0.4-0.2,0.6-0.4,0.8c-0.2,0.1-0.5,0.2-0.8,0.2c-0.3,0-0.7,0-1.3-0.1c-0.6-0.1-1.1-0.1-1.5-0.1c-0.7,0-1.3,0.1-1.9,0.3
		c-0.5,0.2-1,0.5-1.5,0.9c-0.4,0.4-0.8,0.8-1.1,1.4c-0.3,0.5-0.7,1.1-1,1.8v17.5h-7.6V37.9h4.5c0.8,0,1.3,0.1,1.6,0.4
		c0.3,0.3,0.5,0.8,0.6,1.4L165.7,42.6z"/>
	<path fill="#244356" d="M187.1,40.7c0.5-0.5,1.1-0.9,1.7-1.3c0.6-0.4,1.2-0.7,1.9-1c0.7-0.3,1.4-0.5,2.1-0.7
		c0.7-0.2,1.6-0.2,2.4-0.2c1.6,0,2.9,0.3,4.1,0.8c1.2,0.5,2.2,1.3,3,2.2c0.8,1,1.4,2.1,1.9,3.4c0.4,1.3,0.6,2.8,0.6,4.4v18.1h-7.6
		V48.3c0-1.6-0.4-2.8-1.1-3.7c-0.7-0.9-1.8-1.3-3.3-1.3c-1.1,0-2.1,0.2-3,0.7c-0.9,0.5-1.8,1.1-2.7,1.9v20.5h-7.6V25.2h7.6
		L187.1,40.7L187.1,40.7z"/>
	<path fill="#244356" d="M210.2,41.8c1.7-1.5,3.5-2.6,5.6-3.4c2-0.7,4.2-1.1,6.6-1.1c1.7,0,3.2,0.3,4.6,0.8c1.3,0.6,2.5,1.3,3.4,2.3
		s1.6,2.2,2.1,3.5c0.5,1.4,0.7,2.9,0.7,4.5v17.9h-3.5c-0.7,0-1.3-0.1-1.6-0.3c-0.4-0.2-0.7-0.6-0.9-1.3l-0.6-1.8
		c-0.7,0.6-1.4,1.2-2.1,1.7c-0.7,0.5-1.4,0.9-2.1,1.2c-0.7,0.3-1.5,0.6-2.3,0.7c-0.8,0.2-1.7,0.2-2.8,0.2c-1.3,0-2.4-0.2-3.4-0.5
		c-1-0.3-1.9-0.8-2.7-1.5c-0.7-0.7-1.3-1.5-1.7-2.4c-0.4-1-0.6-2.1-0.6-3.4c0-1.1,0.3-2.1,0.8-3.2s1.5-2,2.8-2.9
		c1.3-0.9,3-1.6,5.2-2.1c2.2-0.6,4.9-0.9,8.1-1v-1.5c0-1.8-0.4-3.1-1.1-3.9c-0.8-0.8-1.8-1.3-3.3-1.3c-1.1,0-1.9,0.1-2.6,0.4
		c-0.7,0.2-1.3,0.5-1.8,0.8c-0.5,0.3-1,0.6-1.5,0.8c-0.5,0.2-1,0.4-1.6,0.4c-0.5,0-1-0.1-1.3-0.4c-0.4-0.3-0.7-0.6-0.9-1L210.2,41.8
		z M225.7,54.5c-1.9,0.1-3.4,0.3-4.6,0.5c-1.2,0.2-2.2,0.5-2.9,0.9c-0.7,0.4-1.2,0.8-1.5,1.3c-0.3,0.5-0.5,1-0.5,1.5
		c0,1.1,0.3,1.9,0.9,2.4c0.6,0.5,1.5,0.7,2.6,0.7c1.3,0,2.4-0.2,3.3-0.7c0.9-0.5,1.9-1.2,2.8-2.1V54.5z"/>
	<path fill="#244356" d="M256.9,43.8c-0.2,0.3-0.4,0.5-0.6,0.7c-0.2,0.1-0.5,0.2-0.9,0.2c-0.4,0-0.7-0.1-1.1-0.3
		c-0.4-0.2-0.8-0.4-1.3-0.6c-0.5-0.2-1-0.4-1.6-0.6s-1.3-0.3-2.1-0.3c-1.2,0-2.2,0.3-2.9,0.8s-1,1.2-1,2c0,0.6,0.2,1.1,0.6,1.4
		c0.4,0.4,0.9,0.7,1.5,1c0.6,0.3,1.4,0.6,2.2,0.8c0.8,0.2,1.6,0.5,2.5,0.8c0.9,0.3,1.7,0.6,2.5,1c0.8,0.4,1.5,0.9,2.2,1.5
		c0.6,0.6,1.1,1.3,1.5,2.1s0.6,1.8,0.6,3c0,1.4-0.3,2.7-0.8,3.8c-0.5,1.2-1.2,2.2-2.2,3c-1,0.8-2.2,1.5-3.7,2
		c-1.5,0.5-3.1,0.7-5,0.7c-1,0-1.9-0.1-2.9-0.3c-1-0.2-1.9-0.4-2.7-0.7c-0.9-0.3-1.7-0.7-2.4-1.1c-0.8-0.4-1.4-0.9-2-1.4l1.8-2.9
		c0.2-0.3,0.5-0.6,0.8-0.8c0.3-0.2,0.7-0.3,1.2-0.3c0.5,0,0.9,0.1,1.3,0.3c0.4,0.2,0.8,0.5,1.3,0.7c0.5,0.3,1,0.5,1.7,0.7
		c0.7,0.2,1.5,0.3,2.4,0.3c0.7,0,1.4-0.1,1.9-0.2c0.5-0.2,1-0.4,1.3-0.7c0.3-0.3,0.6-0.6,0.7-1c0.2-0.4,0.2-0.7,0.2-1.1
		c0-0.6-0.2-1.1-0.6-1.5c-0.4-0.4-0.9-0.7-1.5-1c-0.6-0.3-1.4-0.6-2.2-0.8c-0.8-0.2-1.7-0.5-2.5-0.8c-0.9-0.3-1.7-0.6-2.5-1.1
		c-0.8-0.4-1.5-0.9-2.2-1.5c-0.6-0.6-1.2-1.4-1.6-2.3c-0.4-0.9-0.6-2-0.6-3.3c0-1.2,0.2-2.3,0.7-3.4c0.5-1.1,1.2-2,2.1-2.8
		c0.9-0.8,2.1-1.5,3.4-1.9c1.4-0.5,3-0.7,4.8-0.7c2,0,3.9,0.3,5.5,1c1.7,0.7,3,1.5,4.1,2.6L256.9,43.8z"/>
	<path fill="#244356" d="M271.2,40.7c0.5-0.5,1.1-0.9,1.7-1.3c0.6-0.4,1.2-0.7,1.9-1c0.7-0.3,1.4-0.5,2.1-0.7
		c0.7-0.2,1.6-0.2,2.4-0.2c1.6,0,2.9,0.3,4.1,0.8c1.2,0.5,2.2,1.3,3,2.2c0.8,1,1.4,2.1,1.9,3.4c0.4,1.3,0.6,2.8,0.6,4.4v18.1h-7.6
		V48.3c0-1.6-0.4-2.8-1.1-3.7c-0.7-0.9-1.8-1.3-3.3-1.3c-1.1,0-2.1,0.2-3,0.7c-0.9,0.5-1.8,1.1-2.7,1.9v20.5h-7.6V25.2h7.6
		L271.2,40.7L271.2,40.7z"/>
	<path fill="#244356" d="M304.4,66.9c-1.3,0-2.4-0.2-3.4-0.6c-1-0.4-1.8-0.9-2.5-1.6c-0.7-0.7-1.2-1.5-1.5-2.5
		c-0.4-1-0.5-2.1-0.5-3.4V43.4h-2.7c-0.4,0-0.8-0.1-1-0.4c-0.3-0.3-0.4-0.6-0.4-1.2v-3l4.6-0.8l1.6-7.4c0.2-0.8,0.8-1.2,1.7-1.2h4
		v8.7h7.4v5.3h-7.4v14.9c0,0.8,0.2,1.4,0.6,1.9c0.4,0.5,0.9,0.7,1.6,0.7c0.4,0,0.7,0,0.9-0.1c0.3-0.1,0.5-0.2,0.7-0.3
		c0.2-0.1,0.4-0.2,0.5-0.3c0.2-0.1,0.3-0.1,0.5-0.1c0.2,0,0.4,0.1,0.6,0.2c0.1,0.1,0.3,0.3,0.4,0.5l2.3,3.7
		c-1.1,0.8-2.2,1.5-3.6,1.9C307.2,66.6,305.9,66.9,304.4,66.9z"/>
	<path fill="#244356" d="M314.8,41.8c1.7-1.5,3.5-2.6,5.6-3.4c2-0.7,4.2-1.1,6.6-1.1c1.7,0,3.2,0.3,4.6,0.8s2.5,1.3,3.4,2.3
		c0.9,1,1.6,2.2,2.1,3.5c0.5,1.4,0.7,2.9,0.7,4.5v17.9h-3.5c-0.7,0-1.3-0.1-1.6-0.3c-0.4-0.2-0.7-0.6-0.9-1.3l-0.6-1.8
		c-0.7,0.6-1.4,1.2-2.1,1.7c-0.7,0.5-1.4,0.9-2.1,1.2c-0.7,0.3-1.5,0.6-2.3,0.7c-0.8,0.2-1.7,0.2-2.8,0.2c-1.3,0-2.4-0.2-3.4-0.5
		c-1-0.3-1.9-0.8-2.7-1.5c-0.7-0.7-1.3-1.5-1.7-2.4c-0.4-1-0.6-2.1-0.6-3.4c0-1.1,0.3-2.1,0.8-3.2c0.5-1.1,1.5-2,2.8-2.9
		c1.3-0.9,3-1.6,5.2-2.1c2.2-0.6,4.9-0.9,8.1-1v-1.5c0-1.8-0.4-3.1-1.1-3.9c-0.8-0.8-1.8-1.3-3.3-1.3c-1.1,0-1.9,0.1-2.6,0.4
		c-0.7,0.2-1.3,0.5-1.8,0.8c-0.5,0.3-1,0.6-1.5,0.8c-0.5,0.2-1,0.4-1.6,0.4c-0.5,0-1-0.1-1.3-0.4c-0.4-0.3-0.7-0.6-0.9-1L314.8,41.8
		z M330.4,54.5c-1.9,0.1-3.4,0.3-4.6,0.5c-1.2,0.2-2.2,0.5-2.9,0.9c-0.7,0.4-1.2,0.8-1.5,1.3c-0.3,0.5-0.5,1-0.5,1.5
		c0,1.1,0.3,1.9,0.9,2.4c0.6,0.5,1.5,0.7,2.6,0.7c1.3,0,2.4-0.2,3.3-0.7c0.9-0.5,1.9-1.2,2.8-2.1V54.5z"/>
	<path fill="#244356" d="M369.2,38.8v2.8c0,0.4-0.1,0.8-0.4,1.1c-0.2,0.3-0.7,0.5-1.2,0.6l-2.3,0.5c0.3,0.9,0.5,1.9,0.5,2.9
		c0,1.4-0.3,2.7-0.9,3.8c-0.6,1.1-1.4,2.1-2.4,2.9c-1,0.8-2.2,1.4-3.6,1.9s-2.9,0.6-4.5,0.6c-1,0-2-0.1-2.8-0.2
		c-0.8,0.5-1.2,1-1.2,1.6c0,0.5,0.3,0.9,0.8,1.2s1.2,0.4,2.1,0.5c0.9,0.1,1.8,0.2,2.9,0.2c1.1,0,2.2,0.1,3.3,0.2
		c1.1,0.1,2.2,0.3,3.3,0.5c1.1,0.2,2.1,0.6,2.9,1.1c0.9,0.5,1.6,1.2,2.1,2.1c0.5,0.9,0.8,2,0.8,3.3c0,1.3-0.3,2.5-0.9,3.7
		c-0.6,1.2-1.5,2.3-2.7,3.2c-1.2,0.9-2.7,1.7-4.4,2.3c-1.7,0.6-3.7,0.9-5.9,0.9c-2.2,0-4.1-0.2-5.7-0.6c-1.6-0.4-3-1-4-1.7
		c-1.1-0.7-1.8-1.5-2.4-2.4c-0.5-0.9-0.8-1.8-0.8-2.8c0-1.3,0.4-2.4,1.2-3.2c0.8-0.9,1.8-1.6,3.2-2.1c-0.7-0.4-1.3-0.9-1.7-1.6
		c-0.4-0.7-0.6-1.5-0.6-2.6c0-0.8,0.3-1.7,0.9-2.7c0.6-0.9,1.6-1.7,2.9-2.4c-1.5-0.8-2.6-1.8-3.5-3.1c-0.8-1.3-1.3-2.8-1.3-4.6
		c0-1.4,0.3-2.7,0.9-3.8c0.6-1.1,1.4-2.1,2.4-2.9c1-0.8,2.2-1.4,3.7-1.8c1.4-0.4,2.9-0.6,4.6-0.6c2.4,0,4.6,0.5,6.4,1.4L369.2,38.8
		L369.2,38.8z M361.7,67.6c0-0.5-0.2-0.9-0.5-1.2c-0.3-0.3-0.7-0.6-1.3-0.7s-1.1-0.3-1.9-0.4c-0.7-0.1-1.5-0.1-2.3-0.2
		s-1.7-0.1-2.5-0.1s-1.7-0.1-2.5-0.2c-0.6,0.4-1.2,0.8-1.6,1.4c-0.4,0.5-0.6,1.1-0.6,1.8c0,0.5,0.1,0.9,0.3,1.3s0.6,0.7,1.1,1
		c0.5,0.3,1.2,0.5,2,0.6c0.8,0.2,1.8,0.2,3,0.2c1.3,0,2.3-0.1,3.2-0.2c0.9-0.2,1.6-0.4,2.1-0.7s0.9-0.7,1.1-1.1
		C361.5,68.5,361.7,68.1,361.7,67.6z M354.4,51.1c1.6,0,2.7-0.4,3.5-1.2c0.7-0.8,1.1-1.8,1.1-3.1c0-1.3-0.4-2.3-1.1-3.1
		c-0.7-0.7-1.9-1.1-3.5-1.1c-1.6,0-2.7,0.4-3.5,1.1c-0.7,0.7-1.1,1.8-1.1,3.1c0,1.2,0.4,2.3,1.1,3.1
		C351.7,50.7,352.9,51.1,354.4,51.1z"/>
</g>
<linearGradient id="SVGID_1_" gradientUnits="userSpaceOnUse" x1="-1.1182" y1="-0.6563" x2="5.5133" y2="5.9752" gradientTransform="matrix(5.0026 0 0 -5.0026 0 71.2265)">
	<stop  offset="0" style="stop-color:#FF7761"/>
	<stop  offset="0.1563" style="stop-color:#D96E5F"/>
	<stop  offset="0.5721" style="stop-color:#78575A"/>
	<stop  offset="0.8624" style="stop-color:#3C4957"/>
	<stop  offset="1" style="stop-color:#244356"/>
</linearGradient>
<polygon fill="url(#SVGID_1_)" points="2,17.4 42,37.1 42,76.5 2,96.2 "/>
<linearGradient id="SVGID_2_" gradientUnits="userSpaceOnUse" x1="1.4819" y1="-1.6678" x2="8.1134" y2="4.9637" gradientTransform="matrix(5.0026 0 0 5.0026 0 46.4095)">
	<stop  offset="0" style="stop-color:#FF7761"/>
	<stop  offset="0.1563" style="stop-color:#D96E5F"/>
	<stop  offset="0.5721" style="stop-color:#78575A"/>
	<stop  offset="0.8624" style="stop-color:#3C4957"/>
	<stop  offset="1" style="stop-color:#244356"/>
</linearGradient>
<polygon fill="url(#SVGID_2_)" points="15,16.4 55,36.1 55,75.5 15,95.2 "/>
<g>
	<path fill="#FFFFFF" d="M45.1,47.4l-0.2,2c0,0.5-0.1,0.9-0.3,1.1c-0.2,0.2-0.4,0.3-0.8,0.3l-1.4-0.2l-0.7,7.3l1.9-0.2
		c0.3,0,0.4,0.1,0.5,0.4c0.1,0.3,0.1,0.8,0.1,1.6l-0.1,1.6l-2.8,0.6l-1.1,10.9l-1.4,0.8c-0.2,0.1-0.3,0.1-0.4,0
		c-0.1-0.1-0.3-0.2-0.4-0.4c-0.1-0.2-0.2-0.4-0.2-0.7c0-0.3,0-0.6,0-1l1-9.1l-3.8,0.8l-1.2,10.5c-0.1,0.9-0.3,1.7-0.7,2.3
		c-0.4,0.6-0.8,1-1.3,1.3l-2.2,1.2l1.9-14.5l-3.1,0.7c-0.6,0.1-1,0-1.3-0.5c-0.3-0.4-0.3-1.3-0.2-2.4l0.3-2.5l4.8-0.4l1.2-9.4
		L28,48.6l0.4-3.1c0.1-0.8,0.3-1.3,0.7-1.6c0.4-0.3,0.9-0.3,1.6-0.1l2.9,0.7l1.3-9.8c0.1-0.7,0.3-1.1,0.6-1.3c0.3-0.2,0.7-0.2,1.1,0
		l1.6,0.9l-1.3,11l3.5,0.9l1.1-10l1.2,0.7c0.3,0.2,0.5,0.5,0.7,0.9c0.2,0.4,0.2,0.9,0.2,1.4l-0.8,7.7L45.1,47.4z M40.1,50.2
		l-3.6-0.5l-1,8.6l3.8-0.3L40.1,50.2z"/>
</g>
</svg>
