<?xml version="1.0" encoding="utf-8"?>
<!-- Generator: Adobe Illustrator 17.1.0, SVG Export Plug-In . SVG Version: 6.00 Build 0)  -->
<!DOCTYPE svg PUBLIC "-//W3C//DTD SVG 1.1//EN" "http://www.w3.org/Graphics/SVG/1.1/DTD/svg11.dtd">
<svg version="1.1" id="Layer_1" xmlns="http://www.w3.org/2000/svg" xmlns:xlink="http://www.w3.org/1999/xlink" x="0px" y="0px"
	 viewBox="2 34.498 375 82.885" enable-background="new 2 34.498 375 82.885" xml:space="preserve">
<g>
	<path fill="#244356" d="M95.137,57.66L79.41,94.629c-0.204,0.511-0.511,0.919-0.919,1.225c-0.306,0.306-0.919,0.409-1.634,0.409
		h-5.821l5.515-11.744L64.908,57.66h6.842c0.613,0,1.123,0.102,1.43,0.408c0.306,0.306,0.613,0.613,0.715,1.021l5.515,13.889
		c0.204,0.511,0.408,1.123,0.511,1.634c0.204,0.511,0.306,1.123,0.511,1.634c0.306-1.123,0.715-2.247,1.123-3.37l5.106-13.889
		c0.102-0.409,0.409-0.715,0.817-1.021c0.408-0.306,0.817-0.408,1.328-0.408L95.137,57.66L95.137,57.66z"/>
	<path fill="#244356" d="M110.354,57.15c2.145,0,4.187,0.306,5.923,1.021c1.838,0.715,3.37,1.736,4.596,2.962
		c1.328,1.328,2.247,2.859,2.962,4.698c0.715,1.838,1.021,3.881,1.021,6.23c0,2.349-0.306,4.391-1.021,6.23
		c-0.715,1.838-1.736,3.472-2.962,4.698s-2.859,2.349-4.596,2.962c-1.736,0.613-3.779,1.021-5.923,1.021
		c-2.247,0-4.187-0.306-6.025-1.021c-1.838-0.715-3.37-1.736-4.596-2.962c-1.328-1.328-2.247-2.859-2.962-4.698
		s-1.021-3.983-1.021-6.23c0-2.349,0.306-4.391,1.021-6.23s1.736-3.37,2.962-4.698c1.328-1.328,2.859-2.247,4.596-2.962
		C106.167,57.558,108.209,57.15,110.354,57.15z M110.354,81.353c2.247,0,3.881-0.817,4.902-2.349
		c1.123-1.532,1.634-3.779,1.634-6.842s-0.511-5.31-1.634-6.842c-1.123-1.532-2.757-2.349-4.902-2.349
		c-2.247,0-3.983,0.817-5.004,2.349c-1.021,1.532-1.634,3.779-1.634,6.842s0.511,5.31,1.634,6.842
		C106.371,80.638,108.107,81.353,110.354,81.353z"/>
	<path fill="#244356" d="M155.391,57.66v29.105h-4.8c-1.021,0-1.634-0.409-1.94-1.328l-0.511-2.042
		c-0.613,0.613-1.225,1.123-1.838,1.532c-0.613,0.511-1.328,0.919-2.042,1.225c-0.715,0.306-1.43,0.613-2.247,0.817
		c-0.817,0.204-1.736,0.306-2.655,0.306c-1.532,0-2.962-0.306-4.187-0.817c-1.225-0.511-2.247-1.328-3.064-2.247
		c-0.817-1.021-1.43-2.145-1.94-3.472c-0.408-1.328-0.613-2.859-0.613-4.493V57.66h7.761v18.484c0,1.634,0.408,2.859,1.123,3.779
		c0.715,0.919,1.838,1.328,3.37,1.328c1.123,0,2.145-0.204,3.064-0.715s1.838-1.123,2.757-1.94V57.66H155.391z"/>
	<path fill="#244356" d="M169.177,62.46c0.919-1.634,1.94-2.962,3.166-3.881c1.225-0.919,2.655-1.43,4.289-1.43
		c1.328,0,2.349,0.306,3.268,0.919l-0.511,5.719c-0.102,0.409-0.204,0.613-0.408,0.817c-0.204,0.102-0.511,0.204-0.817,0.204
		c-0.306,0-0.715,0-1.328-0.102c-0.613-0.102-1.123-0.102-1.532-0.102c-0.715,0-1.328,0.102-1.94,0.306
		c-0.511,0.204-1.021,0.511-1.532,0.919c-0.408,0.409-0.817,0.817-1.123,1.43c-0.306,0.511-0.715,1.123-1.021,1.838V86.97h-7.761
		V57.66h4.596c0.817,0,1.328,0.102,1.634,0.408c0.306,0.306,0.511,0.817,0.613,1.43L169.177,62.46z"/>
	<path fill="#244356" d="M191.032,60.52c0.511-0.511,1.123-0.919,1.736-1.328s1.225-0.715,1.94-1.021
		c0.715-0.306,1.43-0.511,2.145-0.715c0.715-0.204,1.634-0.204,2.451-0.204c1.634,0,2.962,0.306,4.187,0.817
		c1.225,0.511,2.247,1.328,3.064,2.247c0.817,1.021,1.43,2.145,1.94,3.472c0.408,1.328,0.613,2.859,0.613,4.493v18.484h-7.761
		V68.281c0-1.634-0.408-2.859-1.123-3.779c-0.715-0.919-1.838-1.328-3.37-1.328c-1.123,0-2.145,0.204-3.064,0.715
		s-1.838,1.123-2.757,1.94v20.935h-7.761V44.69h7.761L191.032,60.52L191.032,60.52z"/>
	<path fill="#244356" d="M214.623,61.643c1.736-1.532,3.574-2.655,5.719-3.472c2.042-0.715,4.289-1.123,6.74-1.123
		c1.736,0,3.268,0.306,4.698,0.817c1.328,0.613,2.553,1.328,3.472,2.349c0.919,1.021,1.634,2.247,2.145,3.574
		c0.511,1.43,0.715,2.962,0.715,4.596v18.28h-3.574c-0.715,0-1.328-0.102-1.634-0.306c-0.408-0.204-0.715-0.613-0.919-1.328
		l-0.613-1.838c-0.715,0.613-1.43,1.225-2.145,1.736c-0.715,0.511-1.43,0.919-2.145,1.225c-0.715,0.306-1.532,0.613-2.349,0.715
		c-0.817,0.204-1.736,0.204-2.859,0.204c-1.328,0-2.451-0.204-3.472-0.511s-1.94-0.817-2.757-1.532
		c-0.715-0.715-1.328-1.532-1.736-2.451c-0.408-1.021-0.613-2.145-0.613-3.472c0-1.123,0.306-2.145,0.817-3.268
		c0.511-1.123,1.532-2.042,2.859-2.962c1.328-0.919,3.064-1.634,5.31-2.145c2.247-0.613,5.004-0.919,8.272-1.021v-1.532
		c0-1.838-0.408-3.166-1.123-3.983c-0.817-0.817-1.838-1.328-3.37-1.328c-1.123,0-1.94,0.102-2.655,0.409
		c-0.715,0.204-1.328,0.511-1.838,0.817c-0.511,0.306-1.021,0.613-1.532,0.817s-1.021,0.409-1.634,0.409
		c-0.511,0-1.021-0.102-1.328-0.409c-0.408-0.306-0.715-0.613-0.919-1.021L214.623,61.643z M230.452,74.613
		c-1.94,0.102-3.472,0.306-4.698,0.511c-1.225,0.204-2.247,0.511-2.962,0.919c-0.715,0.409-1.225,0.817-1.532,1.328
		c-0.306,0.511-0.511,1.021-0.511,1.532c0,1.123,0.306,1.94,0.919,2.451c0.613,0.511,1.532,0.715,2.655,0.715
		c1.328,0,2.451-0.204,3.37-0.715s1.94-1.225,2.859-2.145v-4.596H230.452z"/>
	<path fill="#244356" d="M262.315,63.686c-0.204,0.306-0.408,0.511-0.613,0.715c-0.204,0.102-0.511,0.204-0.919,0.204
		c-0.408,0-0.715-0.102-1.123-0.306c-0.409-0.204-0.817-0.409-1.328-0.613s-1.021-0.408-1.634-0.613
		c-0.613-0.204-1.328-0.306-2.145-0.306c-1.225,0-2.247,0.306-2.962,0.817c-0.715,0.511-1.021,1.225-1.021,2.042
		c0,0.613,0.204,1.123,0.613,1.43c0.408,0.409,0.919,0.715,1.532,1.021s1.43,0.613,2.247,0.817c0.817,0.204,1.634,0.511,2.553,0.817
		c0.919,0.306,1.736,0.613,2.553,1.021s1.532,0.919,2.247,1.532c0.613,0.613,1.123,1.328,1.532,2.145
		c0.409,0.817,0.613,1.838,0.613,3.064c0,1.43-0.306,2.757-0.817,3.881c-0.511,1.225-1.225,2.247-2.247,3.064
		c-1.021,0.817-2.247,1.532-3.779,2.042s-3.166,0.715-5.106,0.715c-1.021,0-1.94-0.102-2.962-0.306
		c-1.021-0.204-1.94-0.409-2.757-0.715c-0.919-0.306-1.736-0.715-2.451-1.123c-0.817-0.409-1.43-0.919-2.042-1.43l1.838-2.962
		c0.204-0.306,0.511-0.613,0.817-0.817s0.715-0.306,1.225-0.306c0.511,0,0.919,0.102,1.328,0.306
		c0.408,0.204,0.817,0.511,1.328,0.715c0.511,0.306,1.021,0.511,1.736,0.715c0.715,0.204,1.532,0.306,2.451,0.306
		c0.715,0,1.43-0.102,1.94-0.204c0.511-0.204,1.021-0.408,1.328-0.715s0.613-0.613,0.715-1.021c0.204-0.409,0.204-0.715,0.204-1.123
		c0-0.613-0.204-1.123-0.613-1.532c-0.408-0.409-0.919-0.715-1.532-1.021c-0.613-0.306-1.43-0.613-2.247-0.817
		c-0.817-0.204-1.736-0.511-2.553-0.817c-0.919-0.306-1.736-0.613-2.553-1.123c-0.817-0.408-1.532-0.919-2.247-1.532
		c-0.613-0.613-1.225-1.43-1.634-2.349c-0.408-0.919-0.613-2.042-0.613-3.37c0-1.225,0.204-2.349,0.715-3.472
		c0.511-1.123,1.225-2.042,2.145-2.859c0.919-0.817,2.145-1.532,3.472-1.94c1.43-0.511,3.064-0.715,4.902-0.715
		c2.042,0,3.983,0.306,5.617,1.021c1.736,0.715,3.064,1.532,4.187,2.655L262.315,63.686z"/>
	<path fill="#244356" d="M276.918,60.52c0.511-0.511,1.123-0.919,1.736-1.328c0.613-0.408,1.225-0.715,1.94-1.021
		c0.715-0.306,1.43-0.511,2.145-0.715c0.715-0.204,1.634-0.204,2.451-0.204c1.634,0,2.962,0.306,4.187,0.817
		c1.225,0.511,2.247,1.328,3.064,2.247c0.817,1.021,1.43,2.145,1.94,3.472c0.409,1.328,0.613,2.859,0.613,4.493v18.484h-7.761
		V68.281c0-1.634-0.408-2.859-1.123-3.779c-0.715-0.919-1.838-1.328-3.37-1.328c-1.123,0-2.145,0.204-3.064,0.715
		c-0.919,0.511-1.838,1.123-2.757,1.94v20.935h-7.761V44.69h7.761V60.52L276.918,60.52z"/>
	<path fill="#244356" d="M310.824,87.276c-1.328,0-2.451-0.204-3.472-0.613c-1.021-0.409-1.838-0.919-2.553-1.634
		s-1.225-1.532-1.532-2.553c-0.408-1.021-0.511-2.145-0.511-3.472V63.277h-2.757c-0.409,0-0.817-0.102-1.021-0.409
		c-0.306-0.306-0.409-0.613-0.409-1.225v-3.064l4.698-0.817l1.634-7.557c0.204-0.817,0.817-1.225,1.736-1.225h4.085v8.885h7.557
		v5.413h-7.557v15.216c0,0.817,0.204,1.43,0.613,1.94c0.408,0.511,0.919,0.715,1.634,0.715c0.409,0,0.715,0,0.919-0.102
		c0.306-0.102,0.511-0.204,0.715-0.306c0.204-0.102,0.409-0.204,0.511-0.306c0.204-0.102,0.306-0.102,0.511-0.102
		s0.409,0.102,0.613,0.204c0.102,0.102,0.306,0.306,0.408,0.511l2.349,3.779c-1.123,0.817-2.247,1.532-3.676,1.94
		C313.683,86.97,312.355,87.276,310.824,87.276z"/>
	<path fill="#244356" d="M321.444,61.643c1.736-1.532,3.574-2.655,5.719-3.472c2.042-0.715,4.289-1.123,6.74-1.123
		c1.736,0,3.268,0.306,4.698,0.817c1.43,0.511,2.553,1.328,3.472,2.349c0.919,1.021,1.634,2.247,2.145,3.574
		c0.511,1.43,0.715,2.962,0.715,4.596v18.28h-3.574c-0.715,0-1.328-0.102-1.634-0.306c-0.408-0.204-0.715-0.613-0.919-1.328
		l-0.613-1.838c-0.715,0.613-1.43,1.225-2.145,1.736c-0.715,0.511-1.43,0.919-2.145,1.225c-0.715,0.306-1.532,0.613-2.349,0.715
		c-0.817,0.204-1.736,0.204-2.859,0.204c-1.328,0-2.451-0.204-3.472-0.511s-1.94-0.817-2.757-1.532
		c-0.715-0.715-1.328-1.532-1.736-2.451c-0.408-1.021-0.613-2.145-0.613-3.472c0-1.123,0.306-2.145,0.817-3.268
		s1.532-2.042,2.859-2.962c1.328-0.919,3.064-1.634,5.31-2.145c2.247-0.613,5.004-0.919,8.272-1.021v-1.532
		c0-1.838-0.408-3.166-1.123-3.983c-0.817-0.817-1.838-1.328-3.37-1.328c-1.123,0-1.94,0.102-2.655,0.409
		c-0.715,0.204-1.328,0.511-1.838,0.817c-0.511,0.306-1.021,0.613-1.532,0.817s-1.021,0.409-1.634,0.409
		c-0.511,0-1.021-0.102-1.328-0.409c-0.408-0.306-0.715-0.613-0.919-1.021L321.444,61.643z M337.376,74.613
		c-1.94,0.102-3.472,0.306-4.698,0.511c-1.225,0.204-2.247,0.511-2.962,0.919c-0.715,0.409-1.226,0.817-1.532,1.328
		c-0.306,0.511-0.511,1.021-0.511,1.532c0,1.123,0.306,1.94,0.919,2.451s1.532,0.715,2.655,0.715c1.328,0,2.451-0.204,3.37-0.715
		c0.919-0.511,1.94-1.225,2.859-2.145v-4.596H337.376z"/>
	<path fill="#244356" d="M377,58.579v2.859c0,0.408-0.102,0.817-0.409,1.123c-0.204,0.306-0.715,0.511-1.225,0.613l-2.349,0.511
		c0.306,0.919,0.511,1.94,0.511,2.962c0,1.43-0.306,2.757-0.919,3.881c-0.613,1.123-1.43,2.145-2.451,2.962s-2.247,1.43-3.676,1.94
		c-1.43,0.511-2.962,0.613-4.596,0.613c-1.021,0-2.042-0.102-2.859-0.204c-0.817,0.511-1.225,1.021-1.225,1.634
		c0,0.511,0.306,0.919,0.817,1.225c0.511,0.306,1.225,0.409,2.145,0.511c0.919,0.102,1.838,0.204,2.962,0.204
		c1.123,0,2.247,0.102,3.37,0.204c1.123,0.102,2.247,0.306,3.37,0.511c1.123,0.204,2.145,0.613,2.962,1.123
		c0.919,0.511,1.634,1.225,2.145,2.145s0.817,2.042,0.817,3.37c0,1.328-0.306,2.553-0.919,3.779
		c-0.613,1.225-1.532,2.349-2.757,3.268c-1.225,0.919-2.757,1.736-4.493,2.349c-1.736,0.613-3.779,0.919-6.025,0.919
		c-2.247,0-4.187-0.204-5.821-0.613c-1.634-0.409-3.064-1.021-4.085-1.736c-1.123-0.715-1.838-1.532-2.451-2.451
		c-0.511-0.919-0.817-1.838-0.817-2.859c0-1.328,0.408-2.451,1.225-3.268c0.817-0.919,1.838-1.634,3.268-2.145
		c-0.715-0.409-1.328-0.919-1.736-1.634c-0.408-0.715-0.613-1.532-0.613-2.655c0-0.817,0.306-1.736,0.919-2.757
		c0.613-0.919,1.634-1.736,2.962-2.451c-1.532-0.817-2.655-1.838-3.574-3.166c-0.817-1.328-1.328-2.859-1.328-4.698
		c0-1.43,0.306-2.757,0.919-3.881c0.613-1.123,1.43-2.145,2.451-2.962c1.021-0.817,2.247-1.43,3.779-1.838
		c1.43-0.408,2.962-0.613,4.698-0.613c2.451,0,4.698,0.511,6.536,1.43L377,58.579L377,58.579z M369.341,87.991
		c0-0.511-0.204-0.919-0.511-1.225c-0.306-0.306-0.715-0.613-1.328-0.715c-0.613-0.102-1.123-0.306-1.94-0.409
		c-0.715-0.102-1.532-0.102-2.349-0.204c-0.817-0.102-1.736-0.102-2.553-0.102s-1.736-0.102-2.553-0.204
		c-0.613,0.409-1.225,0.817-1.634,1.43c-0.408,0.511-0.613,1.123-0.613,1.838c0,0.511,0.102,0.919,0.306,1.328
		c0.204,0.409,0.613,0.715,1.123,1.021c0.511,0.306,1.225,0.511,2.042,0.613c0.817,0.204,1.838,0.204,3.064,0.204
		c1.328,0,2.349-0.102,3.268-0.204c0.919-0.204,1.634-0.409,2.145-0.715s0.919-0.715,1.123-1.123
		C369.136,88.91,369.341,88.502,369.341,87.991z M361.886,71.141c1.634,0,2.757-0.409,3.574-1.225
		c0.715-0.817,1.123-1.838,1.123-3.166s-0.408-2.349-1.123-3.166c-0.715-0.715-1.94-1.123-3.574-1.123
		c-1.634,0-2.757,0.409-3.574,1.123c-0.715,0.715-1.123,1.838-1.123,3.166c0,1.225,0.409,2.349,1.123,3.166
		C359.128,70.732,360.354,71.141,361.886,71.141z"/>
</g>
<g>
	
		<linearGradient id="SVGID_1_" gradientUnits="userSpaceOnUse" x1="-1.1148" y1="120.6597" x2="5.5167" y2="114.0282" gradientTransform="matrix(5.1089 0 0 5.1089 -0.0425 -521.3691)">
		<stop  offset="0" style="stop-color:#FF7761"/>
		<stop  offset="0.1563" style="stop-color:#D96E5F"/>
		<stop  offset="0.5721" style="stop-color:#78575A"/>
		<stop  offset="0.8624" style="stop-color:#3C4957"/>
		<stop  offset="1" style="stop-color:#244356"/>
	</linearGradient>
	<polygon fill="url(#SVGID_1_)" points="2,36.725 42.85,56.843 42.85,97.08 2,117.199 	"/>
	
		<linearGradient id="SVGID_2_" gradientUnits="userSpaceOnUse" x1="1.4822" y1="121.6681" x2="8.1137" y2="115.0366" gradientTransform="matrix(5.1089 0 0 -5.1089 -0.0425 679.4142)">
		<stop  offset="0" style="stop-color:#FF7761"/>
		<stop  offset="0.1563" style="stop-color:#D96E5F"/>
		<stop  offset="0.5721" style="stop-color:#78575A"/>
		<stop  offset="0.8624" style="stop-color:#3C4957"/>
		<stop  offset="1" style="stop-color:#244356"/>
	</linearGradient>
	<polygon fill="url(#SVGID_2_)" stroke="#FFFFFF" stroke-width="1.5" stroke-miterlimit="10" points="15.276,35.704 56.126,55.822 
		56.126,96.059 15.276,116.177 	"/>
	<g>
		<path fill="#FFFFFF" d="M46.016,67.362l-0.204,2.042c0,0.511-0.102,0.919-0.306,1.123c-0.204,0.204-0.408,0.306-0.817,0.306
			l-1.43-0.204l-0.715,7.455l1.94-0.204c0.306,0,0.408,0.102,0.511,0.408s0.102,0.817,0.102,1.634l-0.102,1.634l-2.859,0.613
			l-1.123,11.132l-1.43,0.817c-0.204,0.102-0.306,0.102-0.408,0c-0.102-0.102-0.306-0.204-0.408-0.408
			c-0.102-0.204-0.204-0.409-0.204-0.715c0-0.306,0-0.613,0-1.021l1.021-9.293l-3.881,0.817l-1.225,10.723
			c-0.102,0.919-0.306,1.736-0.715,2.349c-0.408,0.613-0.817,1.021-1.328,1.328l-2.247,1.225l1.94-14.808l-3.166,0.715
			c-0.613,0.102-1.021,0-1.328-0.511c-0.306-0.409-0.306-1.328-0.204-2.451l0.306-2.553l4.902-0.408l1.225-9.6l-5.31-0.919
			l0.408-3.166c0.102-0.817,0.306-1.328,0.715-1.634c0.408-0.306,0.919-0.306,1.634-0.102l2.962,0.715l1.328-10.008
			c0.102-0.715,0.306-1.123,0.613-1.328c0.306-0.204,0.715-0.204,1.123,0l1.634,0.919l-1.328,11.234l3.574,0.919l1.123-10.212
			l1.225,0.715c0.306,0.204,0.511,0.511,0.715,0.919c0.204,0.408,0.204,0.919,0.204,1.43l-0.817,7.864L46.016,67.362z
			 M40.909,70.221l-3.676-0.511l-1.021,8.783l3.881-0.306L40.909,70.221z"/>
	</g>
</g>
</svg>
