<?xml version="1.0" encoding="utf-8"?>
<!-- Generator: Adobe Illustrator 17.1.0, SVG Export Plug-In . SVG Version: 6.00 Build 0)  -->
<!DOCTYPE svg PUBLIC "-//W3C//DTD SVG 1.1//EN" "http://www.w3.org/Graphics/SVG/1.1/DTD/svg11.dtd">
<svg version="1.1" id="Layer_1" xmlns="http://www.w3.org/2000/svg" xmlns:xlink="http://www.w3.org/1999/xlink" x="0px" y="0px"
	 viewBox="0 25.818 325.296 68.364" enable-background="new 0 25.818 325.296 68.364" xml:space="preserve">
<linearGradient id="SVGID_1_" gradientUnits="userSpaceOnUse" x1="4" y1="107.5222" x2="4" y2="116.9911" gradientTransform="matrix(4.3395 0 0 -4.3395 0 546.5549)">
	<stop  offset="0" style="stop-color:#FF7761"/>
	<stop  offset="1" style="stop-color:#244356"/>
</linearGradient>
<polygon fill="url(#SVGID_1_)" points="0,25.818 34.716,42.911 34.716,77.093 0,94.182 "/>
<linearGradient id="SVGID_2_" gradientUnits="userSpaceOnUse" x1="6.9227" y1="117.8046" x2="7.0292" y2="107.2614" gradientTransform="matrix(4.3395 0 0 -4.3395 0 546.5549)">
	<stop  offset="0" style="stop-color:#FF7761"/>
	<stop  offset="1" style="stop-color:#244356"/>
</linearGradient>
<polygon fill="url(#SVGID_2_)" points="13.018,25.818 47.734,42.911 47.734,77.093 13.018,94.182 "/>
<g>
	<path fill="#244356" d="M80.851,44.447L67.507,75.839c-0.208,0.448-0.46,0.784-0.756,1.008c-0.296,0.225-0.764,0.337-1.404,0.337
		h-4.92l4.68-9.984l-9.936-22.752h5.808c0.528,0,0.936,0.12,1.224,0.36c0.288,0.24,0.496,0.52,0.624,0.84l4.704,11.832
		c0.176,0.464,0.332,0.932,0.468,1.404c0.136,0.472,0.268,0.94,0.396,1.404c0.288-0.943,0.616-1.888,0.984-2.832l4.368-11.808
		c0.128-0.352,0.36-0.64,0.696-0.864c0.336-0.224,0.704-0.336,1.104-0.336H80.851z"/>
	<path fill="#244356" d="M93.787,44.063c1.856,0,3.544,0.296,5.064,0.888c1.52,0.592,2.824,1.437,3.912,2.532
		c1.088,1.096,1.928,2.428,2.52,3.996c0.592,1.568,0.888,3.336,0.888,5.304c0,1.968-0.296,3.74-0.888,5.316
		c-0.592,1.575-1.432,2.916-2.52,4.02c-1.088,1.104-2.392,1.952-3.912,2.544s-3.208,0.888-5.064,0.888
		c-1.872,0-3.572-0.296-5.1-0.888s-2.836-1.439-3.924-2.544c-1.088-1.104-1.932-2.444-2.532-4.02c-0.6-1.576-0.9-3.348-0.9-5.316
		c0-1.968,0.3-3.735,0.9-5.304c0.6-1.568,1.444-2.9,2.532-3.996c1.088-1.096,2.396-1.94,3.924-2.532
		C90.214,44.36,91.915,44.063,93.787,44.063z M93.787,64.583c1.888,0,3.288-0.651,4.2-1.956c0.912-1.304,1.368-3.243,1.368-5.819
		c0-2.56-0.456-4.492-1.368-5.796c-0.912-1.304-2.313-1.956-4.2-1.956c-1.936,0-3.36,0.652-4.272,1.956
		c-0.912,1.304-1.368,3.236-1.368,5.796c0,2.576,0.456,4.516,1.368,5.819C90.427,63.932,91.851,64.583,93.787,64.583z"/>
	<path fill="#244356" d="M132.067,44.447v24.744h-4.08c-0.848,0-1.392-0.384-1.632-1.152l-0.432-1.728
		c-0.496,0.479-1.008,0.92-1.536,1.319c-0.528,0.4-1.092,0.744-1.692,1.032s-1.248,0.513-1.944,0.672
		c-0.696,0.16-1.452,0.24-2.268,0.24c-1.344,0-2.541-0.232-3.588-0.696c-1.048-0.464-1.924-1.111-2.628-1.943
		s-1.24-1.824-1.608-2.977c-0.368-1.151-0.552-2.416-0.552-3.792v-15.72h6.624v15.72c0,1.376,0.315,2.444,0.948,3.204
		c0.632,0.76,1.572,1.14,2.82,1.14c0.928,0,1.8-0.203,2.616-0.611s1.592-0.964,2.328-1.668V44.447H132.067z"/>
	<path fill="#244356" d="M143.755,48.527c0.784-1.408,1.688-2.52,2.712-3.336c1.024-0.816,2.224-1.224,3.6-1.224
		c1.12,0,2.032,0.264,2.736,0.792l-0.432,4.896c-0.08,0.32-0.204,0.54-0.372,0.66s-0.396,0.18-0.684,0.18
		c-0.256,0-0.624-0.036-1.104-0.108c-0.48-0.072-0.928-0.108-1.344-0.108c-0.608,0-1.148,0.088-1.62,0.264
		c-0.472,0.176-0.892,0.424-1.26,0.744c-0.368,0.32-0.7,0.712-0.996,1.176c-0.296,0.464-0.572,0.992-0.828,1.584v15.144h-6.624
		V44.447h3.912c0.672,0,1.136,0.12,1.392,0.36c0.256,0.24,0.44,0.656,0.552,1.248L143.755,48.527z"/>
	<path fill="#244356" d="M162.259,46.872c0.464-0.416,0.947-0.796,1.451-1.14c0.505-0.344,1.04-0.64,1.608-0.888
		c0.567-0.248,1.176-0.44,1.824-0.576c0.647-0.136,1.348-0.204,2.1-0.204c1.345,0,2.536,0.232,3.576,0.696
		c1.04,0.464,1.916,1.112,2.628,1.944s1.248,1.824,1.608,2.976c0.359,1.152,0.54,2.417,0.54,3.792v15.72h-6.601v-15.72
		c0-1.375-0.32-2.444-0.96-3.204s-1.584-1.14-2.832-1.14c-0.928,0-1.8,0.2-2.615,0.6c-0.816,0.4-1.593,0.96-2.328,1.68v17.784
		h-6.625V33.407h6.625V46.872z"/>
	<path fill="#244356" d="M182.298,47.879c1.456-1.312,3.064-2.292,4.824-2.94s3.664-0.972,5.712-0.972
		c1.472,0,2.788,0.24,3.948,0.72s2.144,1.148,2.952,2.004c0.808,0.856,1.428,1.876,1.86,3.06c0.432,1.184,0.647,2.48,0.647,3.888
		v15.552h-3.024c-0.623,0-1.1-0.088-1.428-0.265c-0.328-0.176-0.596-0.543-0.804-1.104l-0.528-1.584
		c-0.624,0.544-1.228,1.024-1.812,1.439c-0.585,0.417-1.188,0.765-1.813,1.045c-0.624,0.279-1.292,0.491-2.004,0.636
		c-0.712,0.144-1.508,0.216-2.388,0.216c-1.088,0-2.08-0.144-2.977-0.432c-0.896-0.288-1.668-0.716-2.315-1.284
		c-0.648-0.568-1.148-1.276-1.5-2.124c-0.353-0.848-0.528-1.824-0.528-2.928c0-0.912,0.232-1.824,0.696-2.736s1.26-1.74,2.388-2.484
		s2.632-1.36,4.512-1.848c1.88-0.488,4.236-0.764,7.068-0.828V53.64c0-1.552-0.328-2.692-0.983-3.42
		c-0.656-0.728-1.601-1.092-2.832-1.092c-0.912,0-1.673,0.108-2.28,0.324c-0.608,0.216-1.141,0.448-1.596,0.696
		c-0.456,0.248-0.885,0.48-1.284,0.696c-0.4,0.216-0.864,0.324-1.393,0.324c-0.464,0-0.852-0.116-1.164-0.348
		c-0.312-0.231-0.572-0.508-0.779-0.828L182.298,47.879z M195.786,58.847c-1.616,0.081-2.96,0.22-4.032,0.42
		c-1.071,0.2-1.924,0.46-2.556,0.779c-0.632,0.32-1.08,0.685-1.344,1.093c-0.265,0.407-0.396,0.852-0.396,1.331
		c0,0.961,0.268,1.641,0.805,2.04c0.535,0.4,1.283,0.601,2.243,0.601c1.104,0,2.061-0.196,2.868-0.588
		c0.808-0.393,1.612-1.004,2.412-1.836V58.847z"/>
	<path fill="#244356" d="M222.81,49.536c-0.177,0.272-0.356,0.468-0.54,0.588c-0.185,0.12-0.437,0.18-0.756,0.18
		c-0.32,0-0.648-0.08-0.984-0.24c-0.336-0.16-0.712-0.332-1.128-0.516c-0.416-0.184-0.892-0.356-1.428-0.516
		c-0.536-0.16-1.156-0.24-1.86-0.24c-1.072,0-1.904,0.22-2.496,0.66c-0.592,0.44-0.888,1.02-0.888,1.74
		c0,0.496,0.168,0.912,0.504,1.248s0.78,0.628,1.332,0.876s1.18,0.48,1.884,0.696c0.704,0.216,1.429,0.453,2.172,0.708
		c0.744,0.256,1.468,0.552,2.172,0.888s1.332,0.756,1.885,1.26c0.552,0.504,0.996,1.112,1.332,1.824s0.504,1.571,0.504,2.58
		c0,1.199-0.221,2.308-0.66,3.323c-0.44,1.017-1.084,1.893-1.932,2.629c-0.849,0.735-1.904,1.312-3.168,1.728
		c-1.265,0.416-2.721,0.624-4.368,0.624c-0.849,0-1.688-0.076-2.521-0.229c-0.832-0.151-1.624-0.367-2.376-0.647
		s-1.456-0.604-2.111-0.972c-0.656-0.368-1.225-0.769-1.704-1.2l1.535-2.473c0.177-0.287,0.396-0.512,0.66-0.672
		c0.265-0.159,0.604-0.239,1.021-0.239c0.399,0,0.768,0.1,1.104,0.3s0.712,0.416,1.128,0.647c0.416,0.232,0.908,0.448,1.477,0.648
		c0.567,0.2,1.275,0.3,2.124,0.3c0.64,0,1.191-0.072,1.656-0.216c0.464-0.145,0.84-0.34,1.128-0.588
		c0.287-0.248,0.499-0.528,0.636-0.84c0.136-0.313,0.204-0.637,0.204-0.973c0-0.543-0.173-0.987-0.517-1.332
		c-0.344-0.344-0.792-0.644-1.344-0.899s-1.188-0.488-1.908-0.696c-0.72-0.208-1.452-0.44-2.195-0.696
		c-0.744-0.256-1.473-0.56-2.185-0.912c-0.712-0.352-1.344-0.795-1.896-1.332c-0.553-0.536-1-1.196-1.345-1.98
		c-0.344-0.784-0.516-1.736-0.516-2.856c0-1.023,0.2-1.996,0.6-2.916c0.4-0.92,1-1.731,1.801-2.436
		c0.8-0.704,1.796-1.264,2.987-1.68c1.192-0.416,2.572-0.624,4.141-0.624c1.76,0,3.359,0.288,4.8,0.864
		c1.439,0.576,2.624,1.329,3.552,2.256L222.81,49.536z"/>
	<path fill="#244356" d="M235.289,46.872c0.464-0.416,0.947-0.796,1.451-1.14c0.505-0.344,1.04-0.64,1.608-0.888
		c0.567-0.248,1.176-0.44,1.824-0.576c0.647-0.136,1.348-0.204,2.1-0.204c1.345,0,2.536,0.232,3.576,0.696
		c1.04,0.464,1.916,1.112,2.628,1.944s1.248,1.824,1.608,2.976c0.359,1.152,0.54,2.417,0.54,3.792v15.72h-6.601v-15.72
		c0-1.375-0.32-2.444-0.96-3.204s-1.584-1.14-2.832-1.14c-0.928,0-1.8,0.2-2.615,0.6c-0.816,0.4-1.593,0.96-2.328,1.68v17.784
		h-6.624V33.407h6.624V46.872z"/>
	<path fill="#244356" d="M264.09,69.575c-1.12,0-2.112-0.164-2.977-0.492c-0.863-0.327-1.592-0.796-2.184-1.404
		c-0.592-0.607-1.04-1.344-1.344-2.208c-0.305-0.863-0.456-1.839-0.456-2.928V49.199h-2.328c-0.353,0-0.652-0.111-0.9-0.336
		c-0.248-0.224-0.372-0.56-0.372-1.008v-2.592l3.96-0.72l1.345-6.408c0.176-0.72,0.663-1.08,1.464-1.08h3.456v7.536h6.384v4.608
		h-6.384v12.912c0,0.688,0.163,1.232,0.491,1.632c0.328,0.4,0.796,0.6,1.404,0.6c0.32,0,0.592-0.035,0.816-0.107
		c0.224-0.072,0.416-0.152,0.576-0.24c0.159-0.088,0.308-0.168,0.443-0.24c0.136-0.071,0.276-0.107,0.42-0.107
		c0.192,0,0.352,0.044,0.48,0.132c0.128,0.088,0.256,0.236,0.384,0.444l1.992,3.168c-0.912,0.72-1.944,1.264-3.096,1.632
		C266.514,69.391,265.321,69.575,264.09,69.575z"/>
	<path fill="#244356" d="M273.112,47.879c1.456-1.312,3.064-2.292,4.824-2.94s3.664-0.972,5.712-0.972
		c1.472,0,2.788,0.24,3.948,0.72s2.144,1.148,2.952,2.004c0.808,0.856,1.428,1.876,1.86,3.06c0.432,1.184,0.647,2.48,0.647,3.888
		v15.552h-3.024c-0.623,0-1.1-0.088-1.428-0.265c-0.328-0.176-0.596-0.543-0.804-1.104l-0.528-1.584
		c-0.624,0.544-1.228,1.024-1.812,1.439c-0.585,0.417-1.188,0.765-1.813,1.045c-0.624,0.279-1.292,0.491-2.004,0.636
		c-0.712,0.144-1.508,0.216-2.388,0.216c-1.088,0-2.08-0.144-2.977-0.432c-0.896-0.288-1.668-0.716-2.315-1.284
		c-0.648-0.568-1.148-1.276-1.5-2.124c-0.353-0.848-0.528-1.824-0.528-2.928c0-0.912,0.232-1.824,0.696-2.736s1.26-1.74,2.388-2.484
		s2.632-1.36,4.512-1.848c1.88-0.488,4.236-0.764,7.068-0.828V53.64c0-1.552-0.328-2.692-0.983-3.42
		c-0.656-0.728-1.601-1.092-2.832-1.092c-0.912,0-1.673,0.108-2.28,0.324c-0.608,0.216-1.141,0.448-1.596,0.696
		c-0.456,0.248-0.885,0.48-1.284,0.696c-0.4,0.216-0.864,0.324-1.393,0.324c-0.464,0-0.852-0.116-1.164-0.348
		c-0.312-0.231-0.572-0.508-0.779-0.828L273.112,47.879z M286.601,58.847c-1.616,0.081-2.96,0.22-4.032,0.42
		c-1.071,0.2-1.924,0.46-2.556,0.779c-0.632,0.32-1.08,0.685-1.344,1.093c-0.265,0.407-0.396,0.852-0.396,1.331
		c0,0.961,0.268,1.641,0.805,2.04c0.535,0.4,1.283,0.601,2.243,0.601c1.104,0,2.061-0.196,2.868-0.588
		c0.808-0.393,1.612-1.004,2.412-1.836V58.847z"/>
	<path fill="#244356" d="M320.296,45.263v2.424c0,0.384-0.108,0.688-0.324,0.912s-0.572,0.392-1.067,0.504l-2.017,0.408
		c0.272,0.784,0.408,1.625,0.408,2.52c0,1.232-0.252,2.34-0.756,3.324s-1.196,1.824-2.076,2.52c-0.88,0.696-1.92,1.232-3.12,1.608
		s-2.496,0.563-3.888,0.563c-0.88,0-1.704-0.071-2.472-0.215c-0.673,0.416-1.009,0.872-1.009,1.368c0,0.464,0.229,0.8,0.685,1.008
		s1.056,0.356,1.8,0.444s1.592,0.144,2.544,0.168c0.952,0.023,1.92,0.076,2.904,0.156c0.983,0.08,1.951,0.22,2.903,0.42
		s1.801,0.527,2.544,0.983c0.744,0.456,1.345,1.061,1.801,1.813s0.684,1.72,0.684,2.903c0,1.104-0.272,2.176-0.816,3.217
		c-0.544,1.039-1.331,1.968-2.363,2.783c-1.032,0.816-2.301,1.473-3.805,1.969c-1.504,0.495-3.216,0.744-5.136,0.744
		c-1.904,0-3.556-0.181-4.956-0.54c-1.4-0.36-2.56-0.841-3.479-1.44c-0.921-0.6-1.604-1.292-2.053-2.076
		c-0.447-0.784-0.672-1.6-0.672-2.448c0-1.104,0.336-2.04,1.009-2.808c0.672-0.768,1.6-1.384,2.783-1.848
		c-0.624-0.352-1.124-0.813-1.5-1.38c-0.376-0.568-0.563-1.309-0.563-2.221c0-0.735,0.268-1.512,0.804-2.328
		c0.536-0.815,1.364-1.495,2.484-2.04c-1.265-0.672-2.265-1.572-3-2.7c-0.736-1.128-1.104-2.444-1.104-3.948
		c0-1.232,0.252-2.344,0.756-3.336c0.504-0.992,1.204-1.836,2.101-2.532c0.896-0.696,1.951-1.228,3.168-1.596
		c1.216-0.368,2.535-0.552,3.96-0.552c2.112,0,3.976,0.416,5.592,1.248H320.296z M313.72,70.199c0-0.432-0.136-0.784-0.408-1.056
		c-0.271-0.272-0.636-0.488-1.092-0.648s-0.996-0.276-1.62-0.348c-0.624-0.072-1.288-0.128-1.992-0.168s-1.432-0.076-2.184-0.108
		s-1.488-0.088-2.208-0.168c-0.561,0.336-1.02,0.732-1.38,1.188c-0.36,0.455-0.54,0.972-0.54,1.548c0,0.399,0.092,0.768,0.276,1.104
		c0.184,0.336,0.491,0.624,0.924,0.864c0.432,0.24,1,0.428,1.704,0.563c0.703,0.136,1.584,0.204,2.64,0.204
		c1.088,0,2.008-0.071,2.76-0.216c0.752-0.144,1.36-0.348,1.824-0.612c0.464-0.264,0.796-0.58,0.996-0.947
		C313.62,71.031,313.72,70.631,313.72,70.199z M307.456,55.896c1.359,0,2.364-0.344,3.012-1.032
		c0.648-0.688,0.972-1.576,0.972-2.664c0-1.136-0.323-2.028-0.972-2.676c-0.647-0.648-1.652-0.972-3.012-0.972
		c-1.36,0-2.36,0.324-3,0.972c-0.641,0.648-0.96,1.54-0.96,2.676c0,1.072,0.324,1.956,0.972,2.652
		C305.116,55.547,306.112,55.896,307.456,55.896z"/>
</g>
<g>
	<path fill="#FFFFFF" d="M41.744,53.979l-0.152,1.444c-0.039,0.359-0.126,0.615-0.261,0.768c-0.139,0.156-0.365,0.21-0.689,0.16
		l-0.736-0.116l-0.442,3.852l1.152-0.115c0.233-0.023,0.393,0.075,0.486,0.292c0.091,0.214,0.113,0.594,0.067,1.144l-0.11,1.198
		l-1.876,0.554l-0.798,6.804l-1.579,1.101c-0.174,0.121-0.34,0.182-0.497,0.181c-0.16-0.001-0.298-0.06-0.412-0.178
		c-0.116-0.118-0.198-0.29-0.244-0.515c-0.047-0.226-0.044-0.501,0.008-0.824l0.784-5.76l-3.084,0.911l-1.1,7.154
		c-0.144,0.885-0.474,1.671-1.007,2.375c-0.559,0.738-1.222,1.38-2.006,1.926l-3.872,2.7l2.447-12.518l-3.587,1.06
		c-1.146,0.339-2.013,0.33-2.543-0.057c-0.55-0.399-0.686-1.315-0.399-2.715l0.651-2.972l6.711-0.669l1.263-6.5l-6.915-1.087
		l0.873-3.378c0.214-0.8,0.678-1.284,1.37-1.456c0.66-0.164,1.642-0.01,2.879,0.427l2.479,0.875l1.352-6.556
		c0.117-0.557,0.407-0.852,0.858-0.889c0.433-0.036,0.914,0.151,1.438,0.545l2.021,1.521l-1.136,6.979l2.637,0.931l0.857-6.134
		l1.248,0.94c0.263,0.198,0.467,0.479,0.615,0.84c0.145,0.354,0.196,0.702,0.157,1.05l-0.497,4.145L41.744,53.979z M37.436,55.846
		l-2.751-0.432l-0.816,5.23l2.963-0.295L37.436,55.846z"/>
</g>
</svg>
